# WaveFront *.obj file (generated by Autodesk ATF)

mtllib d86f2980-abc9-4882-9633-234af114d3f6.mtl

g Body1

v 0.000000 0.000000 0.000000
v 0.000000 -165.000000 0.000000
v 0.000000 -165.000000 1.600000
v 0.000000 0.000000 1.600000
v 180.000000 -0.000000 0.000000
v 180.000000 0.000000 1.600000
v 180.000000 -165.000000 0.000000
v 180.000000 -165.000000 1.600000
vt -0.000000 0.000000 0.000000
vt 16.500000 0.000000 0.000000
vt -0.000000 0.160000 0.000000
vt 16.500000 0.160000 0.000000
vt 0.000000 0.000000 0.000000
vt 18.000000 0.000000 0.000000
vt 0.000000 0.160000 0.000000
vt 18.000000 0.160000 0.000000
vt 0.000000 0.000000 0.000000
vt 16.500000 0.000000 0.000000
vt 0.000000 0.160000 0.000000
vt 16.500000 0.160000 0.000000
vt 0.000000 0.000000 0.000000
vt 18.000000 0.000000 0.000000
vt 0.000000 0.160000 0.000000
vt 18.000000 0.160000 0.000000
vt -9.000000 -8.250000 0.000000
vt 9.000000 -8.250000 0.000000
vt -9.000000 8.250000 0.000000
vt 9.000000 8.250000 0.000000
vt -9.000000 -8.250000 0.000000
vt 9.000000 -8.250000 0.000000
vt -9.000000 8.250000 0.000000
vt 9.000000 8.250000 0.000000
vn -0.100000 0.000000 0.000000
vn -0.100000 0.000000 0.000000
vn -0.100000 0.000000 0.000000
vn -0.100000 0.000000 0.000000
vn 0.000000 0.100000 0.000000
vn 0.000000 0.100000 0.000000
vn 0.000000 0.100000 0.000000
vn 0.000000 0.100000 0.000000
vn 0.100000 0.000000 0.000000
vn 0.100000 0.000000 0.000000
vn 0.100000 0.000000 0.000000
vn 0.100000 0.000000 0.000000
vn 0.000000 -0.100000 0.000000
vn 0.000000 -0.100000 0.000000
vn 0.000000 -0.100000 0.000000
vn 0.000000 -0.100000 0.000000
vn 0.000000 0.000000 0.100000
vn 0.000000 0.000000 0.100000
vn 0.000000 0.000000 0.100000
vn 0.000000 0.000000 0.100000
vn 0.000000 0.000000 -0.100000
vn 0.000000 0.000000 -0.100000
vn 0.000000 0.000000 -0.100000
vn 0.000000 0.000000 -0.100000
usemtl Steel_-_Satin
f 1/1/1 2/2/2 4/3/3
f 4/3/3 2/2/2 3/4/4
f 5/5/5 1/6/6 6/7/7
f 6/7/7 1/6/6 4/8/8
f 7/9/9 5/10/10 8/11/11
f 8/11/11 5/10/10 6/12/12
f 2/13/13 7/14/14 3/15/15
f 3/15/15 7/14/14 8/16/16
f 3/17/17 8/18/18 4/19/19
f 4/19/19 8/18/18 6/20/20
f 7/21/21 2/22/22 5/23/23
f 5/23/23 2/22/22 1/24/24

g Body2

v 187.500000 -172.500000 0.000000
v 187.500000 -187.500000 0.000000
v 187.500000 -187.500000 1.600000
v 187.500000 -172.500000 1.600000
v 202.500000 -172.500000 0.000000
v 202.500000 -172.500000 1.600000
v 202.500000 -187.500000 0.000000
v 202.500000 -187.500000 1.600000
vt -0.000000 0.000000 0.000000
vt 1.500000 0.000000 0.000000
vt -0.000000 0.160000 0.000000
vt 1.500000 0.160000 0.000000
vt -0.000000 0.000000 0.000000
vt 1.500000 0.000000 0.000000
vt -0.000000 0.160000 0.000000
vt 1.500000 0.160000 0.000000
vt 0.000000 0.000000 0.000000
vt 1.500000 0.000000 0.000000
vt 0.000000 0.160000 0.000000
vt 1.500000 0.160000 0.000000
vt 0.000000 0.000000 0.000000
vt 1.500000 0.000000 0.000000
vt 0.000000 0.160000 0.000000
vt 1.500000 0.160000 0.000000
vt -0.750000 -0.750000 0.000000
vt 0.750000 -0.750000 0.000000
vt -0.750000 0.750000 0.000000
vt 0.750000 0.750000 0.000000
vt -0.750000 -0.750000 0.000000
vt 0.750000 -0.750000 0.000000
vt -0.750000 0.750000 0.000000
vt 0.750000 0.750000 0.000000
vn -0.100000 0.000000 0.000000
vn -0.100000 0.000000 0.000000
vn -0.100000 0.000000 0.000000
vn -0.100000 0.000000 0.000000
vn 0.000000 0.100000 0.000000
vn 0.000000 0.100000 0.000000
vn 0.000000 0.100000 0.000000
vn 0.000000 0.100000 0.000000
vn 0.100000 0.000000 0.000000
vn 0.100000 0.000000 0.000000
vn 0.100000 0.000000 0.000000
vn 0.100000 0.000000 0.000000
vn 0.000000 -0.100000 0.000000
vn 0.000000 -0.100000 0.000000
vn 0.000000 -0.100000 0.000000
vn 0.000000 -0.100000 0.000000
vn 0.000000 0.000000 0.100000
vn 0.000000 0.000000 0.100000
vn 0.000000 0.000000 0.100000
vn 0.000000 0.000000 0.100000
vn -0.000000 0.000000 -0.100000
vn -0.000000 0.000000 -0.100000
vn -0.000000 0.000000 -0.100000
vn -0.000000 0.000000 -0.100000
f 9/25/25 10/26/26 12/27/27
f 12/27/27 10/26/26 11/28/28
f 13/29/29 9/30/30 14/31/31
f 14/31/31 9/30/30 12/32/32
f 15/33/33 13/34/34 16/35/35
f 16/35/35 13/34/34 14/36/36
f 10/37/37 15/38/38 11/39/39
f 11/39/39 15/38/38 16/40/40
f 11/41/41 16/42/42 12/43/43
f 12/43/43 16/42/42 14/44/44
f 15/45/45 10/46/46 13/47/47
f 13/47/47 10/46/46 9/48/48

g Body3

v 202.500000 22.500000 0.000000
v 187.500000 22.500000 0.000000
v 187.500000 22.500000 1.600000
v 202.500000 22.500000 1.600000
v 202.500000 7.500000 0.000000
v 202.500000 7.500000 1.600000
v 187.500000 7.500000 0.000000
v 187.500000 7.500000 1.600000
vt 0.000000 0.000000 0.000000
vt 1.500000 0.000000 0.000000
vt 0.000000 0.160000 0.000000
vt 1.500000 0.160000 0.000000
vt 0.000000 0.000000 0.000000
vt 1.500000 0.000000 0.000000
vt 0.000000 0.160000 0.000000
vt 1.500000 0.160000 0.000000
vt 0.000000 0.000000 0.000000
vt 1.500000 0.000000 0.000000
vt 0.000000 0.160000 0.000000
vt 1.500000 0.160000 0.000000
vt 0.000000 0.000000 0.000000
vt 1.500000 0.000000 0.000000
vt 0.000000 0.160000 0.000000
vt 1.500000 0.160000 0.000000
vt -0.750000 -0.750000 0.000000
vt 0.750000 -0.750000 0.000000
vt -0.750000 0.750000 0.000000
vt 0.750000 0.750000 0.000000
vt 0.750000 0.750000 0.000000
vt -0.750000 0.750000 0.000000
vt 0.750000 -0.750000 0.000000
vt -0.750000 -0.750000 0.000000
vn 0.000000 0.100000 0.000000
vn 0.000000 0.100000 0.000000
vn 0.000000 0.100000 0.000000
vn 0.000000 0.100000 0.000000
vn 0.100000 0.000000 0.000000
vn 0.100000 0.000000 0.000000
vn 0.100000 0.000000 0.000000
vn 0.100000 0.000000 0.000000
vn 0.000000 -0.100000 0.000000
vn 0.000000 -0.100000 0.000000
vn 0.000000 -0.100000 0.000000
vn 0.000000 -0.100000 0.000000
vn -0.100000 0.000000 0.000000
vn -0.100000 0.000000 0.000000
vn -0.100000 0.000000 0.000000
vn -0.100000 0.000000 0.000000
vn 0.000000 0.000000 0.100000
vn 0.000000 0.000000 0.100000
vn 0.000000 0.000000 0.100000
vn 0.000000 0.000000 0.100000
vn 0.000000 0.000000 -0.100000
vn 0.000000 0.000000 -0.100000
vn 0.000000 0.000000 -0.100000
vn 0.000000 0.000000 -0.100000
f 17/49/49 18/50/50 20/51/51
f 20/51/51 18/50/50 19/52/52
f 21/53/53 17/54/54 22/55/55
f 22/55/55 17/54/54 20/56/56
f 23/57/57 21/58/58 24/59/59
f 24/59/59 21/58/58 22/60/60
f 18/61/61 23/62/62 19/63/63
f 19/63/63 23/62/62 24/64/64
f 24/65/65 22/66/66 19/67/67
f 19/67/67 22/66/66 20/68/68
f 18/69/69 17/70/70 23/71/71
f 23/71/71 17/70/70 21/72/72

g Body4

v -22.500000 -187.500003 0.000000
v -7.500000 -187.500003 0.000000
v -7.500000 -187.500003 1.600000
v -22.500000 -187.500003 1.600000
v -22.500000 -172.500003 0.000000
v -22.500000 -172.500003 1.600000
v -7.500000 -172.500003 0.000000
v -7.500000 -172.500003 1.600000
vt 0.000000 0.000000 0.000000
vt 1.500000 0.000000 0.000000
vt 0.000000 0.160000 0.000000
vt 1.500000 0.160000 0.000000
vt 0.000000 0.000000 0.000000
vt 1.500000 0.000000 0.000000
vt 0.000000 0.160000 0.000000
vt 1.500000 0.160000 0.000000
vt 0.000000 0.000000 0.000000
vt 1.500000 0.000000 0.000000
vt 0.000000 0.160000 0.000000
vt 1.500000 0.160000 0.000000
vt 0.000000 0.000000 0.000000
vt 1.500000 0.000000 0.000000
vt 0.000000 0.160000 0.000000
vt 1.500000 0.160000 0.000000
vt 0.750000 0.750000 0.000000
vt -0.750000 0.750000 0.000000
vt 0.750000 -0.750000 0.000000
vt -0.750000 -0.750000 0.000000
vt -0.750000 -0.750000 0.000000
vt 0.750000 -0.750000 0.000000
vt -0.750000 0.750000 0.000000
vt 0.750000 0.750000 0.000000
vn 0.000000 -0.100000 0.000000
vn 0.000000 -0.100000 0.000000
vn 0.000000 -0.100000 0.000000
vn 0.000000 -0.100000 0.000000
vn -0.100000 0.000000 0.000000
vn -0.100000 0.000000 0.000000
vn -0.100000 0.000000 0.000000
vn -0.100000 0.000000 0.000000
vn 0.000000 0.100000 0.000000
vn 0.000000 0.100000 0.000000
vn 0.000000 0.100000 0.000000
vn 0.000000 0.100000 0.000000
vn 0.100000 0.000000 0.000000
vn 0.100000 0.000000 0.000000
vn 0.100000 0.000000 0.000000
vn 0.100000 0.000000 0.000000
vn 0.000000 0.000000 0.100000
vn 0.000000 0.000000 0.100000
vn 0.000000 0.000000 0.100000
vn 0.000000 0.000000 0.100000
vn 0.000000 0.000000 -0.100000
vn 0.000000 0.000000 -0.100000
vn 0.000000 0.000000 -0.100000
vn 0.000000 0.000000 -0.100000
f 25/73/73 26/74/74 28/75/75
f 28/75/75 26/74/74 27/76/76
f 29/77/77 25/78/78 30/79/79
f 30/79/79 25/78/78 28/80/80
f 31/81/81 29/82/82 32/83/83
f 32/83/83 29/82/82 30/84/84
f 26/85/85 31/86/86 27/87/87
f 27/87/87 31/86/86 32/88/88
f 32/89/89 30/90/90 27/91/91
f 27/91/91 30/90/90 28/92/92
f 26/93/93 25/94/94 31/95/95
f 31/95/95 25/94/94 29/96/96

g Body5

v -7.500000 7.500000 0.000000
v -7.500000 22.500000 0.000000
v -7.500000 22.500000 1.600000
v -7.500000 7.500000 1.600000
v -22.500000 7.500000 0.000000
v -22.500000 7.500000 1.600000
v -22.500000 22.500000 0.000000
v -22.500000 22.500000 1.600000
vt 0.000000 0.000000 0.000000
vt 1.500000 0.000000 0.000000
vt 0.000000 0.160000 0.000000
vt 1.500000 0.160000 0.000000
vt 0.000000 0.000000 0.000000
vt 1.500000 0.000000 0.000000
vt 0.000000 0.160000 0.000000
vt 1.500000 0.160000 0.000000
vt -0.000000 0.000000 0.000000
vt 1.500000 0.000000 0.000000
vt -0.000000 0.160000 0.000000
vt 1.500000 0.160000 0.000000
vt -0.000000 0.000000 0.000000
vt 1.500000 0.000000 0.000000
vt -0.000000 0.160000 0.000000
vt 1.500000 0.160000 0.000000
vt 0.750000 0.750000 0.000000
vt -0.750000 0.750000 0.000000
vt 0.750000 -0.750000 0.000000
vt -0.750000 -0.750000 0.000000
vt 0.750000 0.750000 0.000000
vt -0.750000 0.750000 0.000000
vt 0.750000 -0.750000 0.000000
vt -0.750000 -0.750000 0.000000
vn 0.100000 0.000000 0.000000
vn 0.100000 0.000000 0.000000
vn 0.100000 0.000000 0.000000
vn 0.100000 0.000000 0.000000
vn 0.000000 -0.100000 0.000000
vn 0.000000 -0.100000 0.000000
vn 0.000000 -0.100000 0.000000
vn 0.000000 -0.100000 0.000000
vn -0.100000 0.000000 0.000000
vn -0.100000 0.000000 0.000000
vn -0.100000 0.000000 0.000000
vn -0.100000 0.000000 0.000000
vn 0.000000 0.100000 0.000000
vn 0.000000 0.100000 0.000000
vn 0.000000 0.100000 0.000000
vn 0.000000 0.100000 0.000000
vn 0.000000 0.000000 0.100000
vn 0.000000 0.000000 0.100000
vn 0.000000 0.000000 0.100000
vn 0.000000 0.000000 0.100000
vn -0.000000 0.000000 -0.100000
vn -0.000000 0.000000 -0.100000
vn -0.000000 0.000000 -0.100000
vn -0.000000 0.000000 -0.100000
f 33/97/97 34/98/98 36/99/99
f 36/99/99 34/98/98 35/100/100
f 37/101/101 33/102/102 38/103/103
f 38/103/103 33/102/102 36/104/104
f 39/105/105 37/106/106 40/107/107
f 40/107/107 37/106/106 38/108/108
f 34/109/109 39/110/110 35/111/111
f 35/111/111 39/110/110 40/112/112
f 35/113/113 40/114/114 36/115/115
f 36/115/115 40/114/114 38/116/116
f 39/117/117 34/118/118 37/119/119
f 37/119/119 34/118/118 33/120/120

g Body6

v 150.000000 35.000000 10.000000
v 150.000000 5.000000 10.000000
v 150.000000 5.000000 0.000000
v 150.000000 35.000000 0.000000
v 95.000000 35.000000 10.000000
v 95.000000 35.000000 0.000000
v 95.000000 5.000000 10.000000
v 95.000000 5.000000 0.000000
vt 0.000000 0.000000 0.000000
vt 3.000000 0.000000 0.000000
vt 0.000000 1.000000 0.000000
vt 3.000000 1.000000 0.000000
vt 0.000000 0.000000 0.000000
vt 5.500000 0.000000 0.000000
vt 0.000000 1.000000 0.000000
vt 5.500000 1.000000 0.000000
vt 0.000000 0.000000 0.000000
vt 3.000000 0.000000 0.000000
vt 0.000000 1.000000 0.000000
vt 3.000000 1.000000 0.000000
vt 0.000000 -0.000000 0.000000
vt 5.500000 0.000000 0.000000
vt 0.000000 1.000000 0.000000
vt 5.500000 1.000000 0.000000
vt -2.750000 -1.500000 0.000000
vt 2.750000 -1.500000 0.000000
vt -2.750000 1.500000 0.000000
vt 2.750000 1.500000 0.000000
vt -2.750000 -1.500000 0.000000
vt 2.750000 -1.500000 0.000000
vt -2.750000 1.500000 0.000000
vt 2.750000 1.500000 0.000000
vn 0.100000 0.000000 0.000000
vn 0.100000 0.000000 0.000000
vn 0.100000 0.000000 0.000000
vn 0.100000 0.000000 0.000000
vn 0.000000 0.100000 0.000000
vn 0.000000 0.100000 0.000000
vn 0.000000 0.100000 0.000000
vn 0.000000 0.100000 0.000000
vn -0.100000 0.000000 0.000000
vn -0.100000 0.000000 0.000000
vn -0.100000 0.000000 0.000000
vn -0.100000 0.000000 0.000000
vn 0.000000 -0.100000 0.000000
vn 0.000000 -0.100000 0.000000
vn 0.000000 -0.100000 0.000000
vn 0.000000 -0.100000 0.000000
vn 0.000000 0.000000 0.100000
vn 0.000000 0.000000 0.100000
vn 0.000000 0.000000 0.100000
vn 0.000000 0.000000 0.100000
vn 0.000000 0.000000 -0.100000
vn 0.000000 0.000000 -0.100000
vn 0.000000 0.000000 -0.100000
vn 0.000000 0.000000 -0.100000
f 41/121/121 42/122/122 44/123/123
f 44/123/123 42/122/122 43/124/124
f 45/125/125 41/126/126 46/127/127
f 46/127/127 41/126/126 44/128/128
f 47/129/129 45/130/130 48/131/131
f 48/131/131 45/130/130 46/132/132
f 42/133/133 47/134/134 43/135/135
f 43/135/135 47/134/134 48/136/136
f 47/137/137 42/138/138 45/139/139
f 45/139/139 42/138/138 41/140/140
f 43/141/141 48/142/142 44/143/143
f 44/143/143 48/142/142 46/144/144

g Body7

v 89.008309 11.582973 0.000000
v 89.008309 31.582973 0.000000
v 89.008309 31.582973 2.000000
v 89.008309 11.582973 2.000000
v 74.008309 11.582973 0.000000
v 74.008309 11.582973 2.000000
v 74.008309 31.582973 0.000000
v 74.008309 31.582973 2.000000
vt 0.000000 0.000000 0.000000
vt 2.000000 0.000000 0.000000
vt 0.000000 0.200000 0.000000
vt 2.000000 0.200000 0.000000
vt 0.000000 0.000000 0.000000
vt 1.500000 0.000000 0.000000
vt 0.000000 0.200000 0.000000
vt 1.500000 0.200000 0.000000
vt 0.000000 0.000000 0.000000
vt 2.000000 0.000000 0.000000
vt 0.000000 0.200000 0.000000
vt 2.000000 0.200000 0.000000
vt 0.000000 0.000000 0.000000
vt 1.500000 0.000000 0.000000
vt 0.000000 0.200000 0.000000
vt 1.500000 0.200000 0.000000
vt 0.750000 1.000000 0.000000
vt -0.750000 1.000000 0.000000
vt 0.750000 -1.000000 0.000000
vt -0.750000 -1.000000 0.000000
vt 0.750000 1.000000 0.000000
vt -0.750000 1.000000 0.000000
vt 0.750000 -1.000000 0.000000
vt -0.750000 -1.000000 0.000000
vn 0.100000 0.000000 0.000000
vn 0.100000 0.000000 0.000000
vn 0.100000 0.000000 0.000000
vn 0.100000 0.000000 0.000000
vn 0.000000 -0.100000 0.000000
vn 0.000000 -0.100000 0.000000
vn 0.000000 -0.100000 0.000000
vn 0.000000 -0.100000 0.000000
vn -0.100000 0.000000 0.000000
vn -0.100000 0.000000 0.000000
vn -0.100000 0.000000 0.000000
vn -0.100000 0.000000 0.000000
vn 0.000000 0.100000 0.000000
vn 0.000000 0.100000 0.000000
vn 0.000000 0.100000 0.000000
vn 0.000000 0.100000 0.000000
vn 0.000000 0.000000 0.100000
vn 0.000000 0.000000 0.100000
vn 0.000000 0.000000 0.100000
vn 0.000000 0.000000 0.100000
vn 0.000000 0.000000 -0.100000
vn 0.000000 0.000000 -0.100000
vn 0.000000 0.000000 -0.100000
vn 0.000000 0.000000 -0.100000
f 49/145/145 50/146/146 52/147/147
f 52/147/147 50/146/146 51/148/148
f 53/149/149 49/150/150 54/151/151
f 54/151/151 49/150/150 52/152/152
f 55/153/153 53/154/154 56/155/155
f 56/155/155 53/154/154 54/156/156
f 50/157/157 55/158/158 51/159/159
f 51/159/159 55/158/158 56/160/160
f 51/161/161 56/162/162 52/163/163
f 52/163/163 56/162/162 54/164/164
f 55/165/165 50/166/166 53/167/167
f 53/167/167 50/166/166 49/168/168

# 56 vertices
# 168 texture params
# 168 normals
# 84 facets

# 7 groups
